<?xml version="1.0" encoding="UTF-8"?>
<svg id="Layer_1" xmlns="http://www.w3.org/2000/svg" version="1.1" viewBox="0 0 421.23 350.93">
  <!-- Generator: Adobe Illustrator 29.4.0, SVG Export Plug-In . SVG Version: 2.1.0 Build 152)  -->
  <defs>
    <style>
      .st0 {
        fill: #fcd3c5;
      }

      .st0, .st1, .st2, .st3 {
        fill-rule: evenodd;
      }

      .st4 {
        fill: #848aef;
      }

      .st5 {
        fill: none;
        stroke: #ccc2e0;
        stroke-miterlimit: 10;
        stroke-width: 1.32px;
      }

      .st1 {
        fill: #fdbe5f;
      }

      .st2 {
        fill: #fde699;
      }

      .st6 {
        fill: #ccc2e0;
      }

      .st7 {
        fill: #fcb017;
      }

      .st8 {
        fill: #e0e1e0;
      }

      .st9 {
        fill: #786aaf;
      }

      .st10 {
        fill: #f5973c;
      }

      .st11 {
        fill: #f7f8f8;
      }

      .st12 {
        fill: #010101;
        isolation: isolate;
        opacity: .1;
      }

      .st3 {
        fill: #794325;
      }
    </style>
  </defs>
  <g>
    <path class="st4" d="M196.38,36.47l45.28,241.68c1.31,6.97-3.29,13.68-10.26,14.98l-162.14,30.38c-6.97,1.31-13.67-3.29-14.98-10.26L9.01,71.58c-1.31-6.97,3.28-13.68,10.25-14.98l162.14-30.38c6.97-1.31,13.68,3.29,14.98,10.26h0Z"/>
    <rect class="st11" x="37.85" y="52.7" width="174.95" height="244.32" transform="translate(-30.05 26.07) rotate(-10.61)"/>
    <rect class="st9" x="60.66" y="294.91" width="174.95" height="3.51" transform="translate(-52.09 32.35) rotate(-10.61)"/>
    <path class="st12" d="M147.84,51.16c-.46-1.69-2.15-2.76-3.89-2.44l.19-.04s-23.26-.13-26.69-8.64l-4.4-23.5c-1.38-7.36-8.47-12.22-15.84-10.84s-12.22,8.47-10.84,15.84l4.4,23.5c-.12,9.18-21.76,17.71-21.76,17.71l.19-.04c-1.75.33-2.93,1.94-2.75,3.68,0,.09.02.19.04.28.35,1.84,2.12,3.05,3.96,2.71l74.74-14c1.84-.34,3.05-2.12,2.71-3.96-.02-.09-.04-.18-.06-.27h0ZM98.4,12.1c4.34-.81,8.51,2.04,9.32,6.38.81,4.34-2.04,8.51-6.38,9.32s-8.51-2.04-9.32-6.38,2.05-8.51,6.38-9.32Z"/>
    <g>
      <path class="st8" d="M61.97,132.06l-15.1,2.83c-2.9.54-5.7-1.37-6.25-4.28l-2.83-15.1c-.54-2.9,1.37-5.7,4.28-6.25l15.1-2.83c2.9-.54,5.7,1.37,6.25,4.28l2.83,15.1c.54,2.9-1.37,5.7-4.28,6.25ZM42.27,110.33c-2.31.43-3.84,2.67-3.41,4.98l2.83,15.1c.43,2.31,2.67,3.84,4.98,3.41l15.1-2.83c2.31-.43,3.84-2.67,3.41-4.98l-2.83-15.1c-.43-2.31-2.67-3.84-4.98-3.41,0,0-15.1,2.83-15.1,2.83Z"/>
      <path class="st8" d="M170.13,97.34l-91.25,17.1c-1.83.34-3.6-.86-3.94-2.7h0c-.34-1.83.86-3.6,2.7-3.94l91.25-17.1c1.83-.34,3.6.86,3.94,2.7h0c.34,1.83-.86,3.6-2.7,3.94Z"/>
      <path class="st8" d="M147.14,110.92l-66.58,12.47c-1.83.34-3.6-.86-3.94-2.7h0c-.34-1.83.86-3.6,2.7-3.94l66.58-12.47c1.83-.34,3.6.86,3.94,2.7h0c.34,1.83-.86,3.6-2.7,3.94Z"/>
    </g>
    <g>
      <rect class="st5" x="46.73" y="146.62" width="24.98" height="24.98" rx="5.82" ry="5.82" transform="translate(-28.28 13.62) rotate(-10.61)"/>
      <path class="st6" d="M177.33,135.77l-91.25,17.1c-1.83.34-3.6-.86-3.94-2.7h0c-.34-1.83.86-3.6,2.7-3.94l91.25-17.1c1.83-.34,3.6.86,3.94,2.7h0c.34,1.83-.86,3.6-2.7,3.94Z"/>
      <path class="st6" d="M124.25,154.99l-36.49,6.84c-1.83.34-3.6-.86-3.94-2.7h0c-.34-1.83.86-3.6,2.7-3.94l36.49-6.84c1.83-.34,3.6.86,3.94,2.7h0c.34,1.83-.86,3.6-2.7,3.94Z"/>
    </g>
    <g>
      <path class="st8" d="M76.37,208.93l-15.1,2.83c-2.9.54-5.7-1.37-6.25-4.28l-2.83-15.1c-.54-2.9,1.37-5.7,4.28-6.25l15.1-2.83c2.9-.54,5.7,1.37,6.25,4.28l2.83,15.1c.54,2.9-1.37,5.7-4.28,6.25ZM56.67,187.21c-2.31.43-3.84,2.67-3.41,4.98l2.83,15.1c.43,2.31,2.67,3.84,4.98,3.41l15.1-2.83c2.31-.43,3.84-2.67,3.41-4.98l-2.83-15.1c-.43-2.31-2.67-3.84-4.98-3.41l-15.1,2.83Z"/>
      <path class="st8" d="M184.53,174.21l-91.25,17.1c-1.83.34-3.6-.86-3.94-2.7h0c-.34-1.83.86-3.6,2.7-3.94l91.25-17.1c1.83-.34,3.6.86,3.94,2.7h0c.34,1.83-.86,3.6-2.7,3.94Z"/>
      <path class="st8" d="M139.72,191.87l-44.76,8.39c-1.83.34-3.6-.86-3.94-2.7h0c-.34-1.83.86-3.6,2.7-3.94l44.76-8.39c1.83-.34,3.6.86,3.94,2.7h0c.34,1.83-.86,3.6-2.7,3.94Z"/>
    </g>
    <g>
      <path class="st8" d="M83.57,247.37l-15.1,2.83c-2.9.54-5.7-1.37-6.25-4.28l-2.83-15.1c-.54-2.9,1.37-5.7,4.28-6.25l15.1-2.83c2.9-.54,5.7,1.37,6.25,4.28l2.83,15.1c.54,2.9-1.37,5.7-4.28,6.25ZM63.87,225.64c-2.31.43-3.84,2.67-3.41,4.98l2.83,15.1c.43,2.31,2.67,3.84,4.98,3.41l15.1-2.83c2.31-.43,3.84-2.67,3.41-4.98l-2.83-15.1c-.43-2.31-2.67-3.84-4.98-3.41,0,0-15.1,2.83-15.1,2.83Z"/>
      <path class="st8" d="M191.74,212.64l-91.25,17.1c-1.83.34-3.6-.86-3.94-2.7h0c-.34-1.83.86-3.6,2.7-3.94l91.25-17.1c1.83-.34,3.6.86,3.94,2.7h0c.34,1.83-.86,3.6-2.7,3.94Z"/>
      <path class="st8" d="M190.68,222.11l-88.51,16.58c-1.83.34-3.6-.86-3.94-2.7h0c-.34-1.83.86-3.6,2.7-3.94l88.51-16.58c1.83-.34,3.6.86,3.94,2.7h0c.34,1.83-.86,3.6-2.7,3.94Z"/>
    </g>
    <g>
      <path class="st8" d="M90.77,285.8l-15.1,2.83c-2.9.54-5.7-1.37-6.25-4.28l-2.83-15.1c-.54-2.9,1.37-5.7,4.28-6.25l15.1-2.83c2.9-.54,5.7,1.37,6.25,4.28l2.83,15.1c.54,2.9-1.37,5.7-4.28,6.25ZM71.07,264.08c-2.31.43-3.84,2.67-3.41,4.98l2.83,15.1c.43,2.31,2.67,3.84,4.98,3.41l15.1-2.83c2.31-.43,3.84-2.67,3.41-4.98l-2.83-15.1c-.43-2.31-2.67-3.84-4.98-3.41l-15.1,2.83Z"/>
      <rect class="st8" x="102.88" y="252.92" width="99.6" height="6.76" rx="2.63" ry="2.63" transform="translate(-44.58 32.49) rotate(-10.61)"/>
      <path class="st8" d="M183.76,263.19l-74.4,13.94c-1.83.34-3.6-.86-3.94-2.7h0c-.34-1.83.86-3.6,2.7-3.94l74.4-13.94c1.83-.34,3.6.86,3.94,2.7h0c.34,1.83-.86,3.6-2.7,3.94Z"/>
    </g>
    <g>
      <path class="st7" d="M147.74,50.62c-.46-1.69-2.15-2.76-3.89-2.44l.19-.04s-23.26-.13-26.69-8.64l-4.4-23.5c-1.38-7.36-8.47-12.22-15.84-10.84s-12.22,8.47-10.84,15.84l4.4,23.5c-.12,9.18-21.76,17.71-21.76,17.71l.19-.04c-1.75.33-2.93,1.94-2.75,3.68,0,.09.02.19.04.28.35,1.84,2.12,3.05,3.96,2.71l74.74-14c1.84-.34,3.05-2.12,2.71-3.96-.02-.09-.04-.18-.06-.27h0ZM98.3,11.57c4.34-.81,8.51,2.04,9.32,6.38.81,4.34-2.04,8.51-6.38,9.32s-8.51-2.04-9.32-6.38,2.05-8.51,6.38-9.32Z"/>
      <path class="st10" d="M147.8,50.9c.35,1.84-.87,3.61-2.71,3.96l-74.74,14c-1.84.35-3.61-.87-3.96-2.71-.02-.09-.03-.18-.04-.28l81.38-15.25c.03.09.05.18.06.27h.01Z"/>
    </g>
    <polygon class="st6" points="53.04 153.38 50.87 157.05 61.4 164.16 69.91 143.66 66.31 141.7 60.03 158.51 53.04 153.38"/>
  </g>
  <g>
    <path class="st3" d="M293.37,294.34c-5.47,7.94-8.17,17.34-2.68,27.96.12.25.39.68.73,1.19-1.7-.09-3.57-.02-5.15.3-3.19.65-5.73,2.89-4.12,3.37.64.19,2.78-1.22,4.97-1.31,1.14-.03,2.28.04,3.35.04-1.26.57-2.5,1.26-3.53,2.02-2.61,1.95-3.95,5.06-2.28,4.81.66-.11,1.99-2.29,3.95-3.3.54-.28,1.08-.53,1.64-.77-.79.89-1.5,1.85-2.06,2.78-1.9,3.18-1.98,7.02-.33,6.04.65-.39,1.11-3.26,2.72-5.17,1.08-1.26,5.1-5.21,5.42-6.69.14-.68-5.58-8.9-3.35-19.74,1.07-5.23,6.27-11.37,10.56-17.01,2.73-3.59,2.48-2.81,1.76-4.1-2.26-3.99-10.25,7.67-11.59,9.59h-.01Z"/>
    <path class="st2" d="M323.12,176.11c11.04-23.47-6.16-23.52-3.89-8.06-.43-1.62-7.31-13.99-9.61-9.97-.84,1.48-2.68,1.91-1.03,10.61.59,3.04-2.89-3.71-5.27-3.64-7.31.22,4.85,24.75,19.79,11.07h0Z"/>
    <path class="st1" d="M409.97,273.57c13.13-13.82-.16-20.34-18.33-4.74-24.75,21.25,20.74-29.95,1.01-29.12-10.24.42-12.08,23.61-13.75,26.28-2.09,3.39-2.2-13.86-5.31-44.32-1.42-13.87-17.37-41.46-32.92-47.24-57.44-21.39-63.65,35.63-71.83,76.26-9.94,49.35,27.45,70.9,59.99,66.45,38.68-5.3,79.33-36.01,81.13-43.57h0Z"/>
    <path class="st3" d="M284.14,200.11c-5.15,3.93-12.29,1.37-18.65-4.68-4.6,19.3,11.34,24.01,14.53,22.42,3.83-1.9,5.2-13.96,4.12-17.74h0Z"/>
    <path class="st3" d="M302.68,212.34c1.77-6.01,12.2-7.27,17.05,1.64.15.32.31.63.47.93.02.06.05.11.08.19v-.07c.58.78,3.02.43,4.14-1.61-1.53.09-2.96.28-4.06-.27.94-.3,2.39-1.59,2.53-3,.04-.44-2.5.88-3.87.69-.06-.13-.11-.27-.17-.4.76-.16,1.88-1.21,2.05-2.76.05-.47-1.98,1.02-3.22.72-1.57-5.02-12.37-5.7-14.99,3.94h0Z"/>
    <path class="st0" d="M307.93,226.84c8.55,9.02,26.04-1.9,9.81-8.87-5.59-2.4-18.5-.29-9.81,8.87h0Z"/>
    <path class="st2" d="M272.91,272.29c15.88-11.05,70.89,29.52,46.46,45.99-.56.37-24.24-2.21-37.28-14.92-16.48-16.08-9.14-30.92-9.18-31.07h0Z"/>
    <path class="st2" d="M286.53,250.99c-16.72,18.54-100.39,40.45-99.23,19.07.22-4.2,20.14-10.68,32-21.14-3.46.52-32.79-2.74-26.94-10.39,2.16-2.82,1.49-6.69,19.56-10.54,8.74-1.85-16.64-7.06-3.31-15.01,18.74-11.18,82.58,24.96,77.91,38.02h.01Z"/>
    <path class="st3" d="M306.37,316.57c3.79,8.88,10.28,16.19,22.2,17.23.27.02.78.03,1.4.01-.98,1.39-1.93,3-2.5,4.52-1.16,3.04-.62,6.38.65,5.27.49-.44.44-3,1.55-4.9.57-.98,1.25-1.91,1.82-2.81-.18,1.36-.27,2.79-.17,4.06.25,3.25,2.16,6.04,2.84,4.5.26-.61-.87-2.91-.68-5.1.06-.6.14-1.2.22-1.78.35,1.14.77,2.24,1.25,3.22,1.66,3.31,4.87,5.42,4.93,3.51.02-.76-2.16-2.68-2.91-5.07-.49-1.57-1.68-7.1-2.77-8.15-.5-.48-10.51-.05-18.48-7.72-3.85-3.71-6.25-11.38-8.73-18.03-1.58-4.21-1.05-3.59-2.53-3.67-4.58-.22,1,12.77,1.91,14.91h0Z"/>
  </g>
</svg>