<?xml version="1.0" encoding="UTF-8"?>
<svg id="Layer_1" xmlns="http://www.w3.org/2000/svg" version="1.1" viewBox="0 0 453.54 453.54">
  <!-- Generator: Adobe Illustrator 29.4.0, SVG Export Plug-In . SVG Version: 2.1.0 Build 152)  -->
  <defs>
    <style>
      .st0 {
        fill: #dfb86d;
      }

      .st1 {
        fill: #f2b248;
      }

      .st2 {
        fill: #f2dca2;
      }

      .st3 {
        fill: #f7f7f7;
      }
    </style>
  </defs>
  <rect id="BG" class="st3" x="-1.42" y="-1.42" width="456.38" height="456.38"/>
  <g id="Logo">
    <path class="st1" d="M341.87,92.61c-.52-.1-1.11-.14-1.76-.14-17.07,0-80.08,32.05-113.2,76.42-33.12-44.37-96.14-76.42-113.2-76.42-.66,0-1.25.05-1.76.14-8.21,0-17.15,9.86-18.98,30.48v118.19c0,73.97,59.97,129.81,133.94,129.81h0c73.97,0,133.94-55.83,133.94-129.81v-118.19c-1.83-20.62-10.77-30.48-18.98-30.48h0ZM293.21,246.14c0,35.21-28.54,63.74-63.75,63.74h-5.11c-35.21,0-63.75-28.54-63.75-63.74v-43.3c0-4.88,3.89-6.52,8.21-4.76,12.71,11.07,23.05,43.19,58.09,44.04,35.04-.85,45.38-32.97,58.09-44.04,4.32-1.76,8.21-.12,8.21,4.76v43.3h.01Z"/>
    <path class="st2" d="M154.28,107.97c41.61,49.45,17.56,90.63,18.84,94.64,10.86,13.3,22.65,39.52,54.52,39.52,16.65-.86,26.23-7.38,35.08-16.47-30.98-55.94-50.77-84.34-108.44-117.7h0Z"/>
    <path class="st0" d="M227.03,168.72c-10.48,16.78-25.33,45.77-31.1,61.92,7.83,6.68,17.88,11.61,31.71,11.61,16.65-.86,26.23-7.38,35.08-16.47-12.6-22.76-24.09-42.99-35.68-57.06h0Z"/>
  </g>
</svg>