<?xml version="1.0" encoding="UTF-8"?>
<svg id="Layer_1" xmlns="http://www.w3.org/2000/svg" version="1.1" viewBox="0 0 1423.56 410">
  <!-- Generator: Adobe Illustrator 29.4.0, SVG Export Plug-In . SVG Version: 2.1.0 Build 152)  -->
  <defs>
    <style>
      .st0 {
        fill: #634e42;
      }

      .st1, .st2 {
        fill: #4f4f4f;
      }

      .st3 {
        fill: #fde367;
      }

      .st4 {
        fill: #fff;
      }

      .st5 {
        fill: #f8b133;
      }

      .st6 {
        fill: #be9d01;
      }

      .st7 {
        fill: #fdbe5f;
      }

      .st7, .st8, .st9, .st10 {
        fill-rule: evenodd;
      }

      .st11 {
        fill: #382c26;
      }

      .st8 {
        fill: #ffe799;
      }

      .st12 {
        fill: #b98525;
      }

      .st13 {
        fill: #a8cc4c;
      }

      .st14 {
        opacity: .2;
      }

      .st15 {
        fill: #fed101;
      }

      .st16 {
        font-family: Ubuntu-Bold, Ubuntu;
        font-size: 100px;
        font-weight: 700;
      }

      .st16, .st17 {
        fill: #d6ae05;
      }

      .st18 {
        fill: #1c1c1b;
      }

      .st19 {
        display: none;
      }

      .st9 {
        fill: #ffd3c4;
      }

      .st10 {
        fill: #784125;
      }

      .st20 {
        fill: #ef6ea4;
      }

      .st21 {
        fill: #f9c05c;
      }

      .st22 {
        fill: #719017;
      }

      .st23 {
        fill: #94c020;
      }

      .st2 {
        font-family: Rondana-Black, Rondana;
        font-size: 240px;
        font-weight: 800;
      }

      .st24 {
        fill: #f29101;
      }

      .st25 {
        opacity: .7;
      }
    </style>
  </defs>
  <path class="st4" d="M470.62,173.8s39.29,30.51,8.32,71.18c3.24-35.59-8.32-71.18-8.32-71.18Z"/>
  <g class="st19">
    <g>
      <g>
        <path class="st0" d="M226.93,334.59c-12.28,5.19-23.79,12.02-36.1,17.12-1.47.61-.82,3.03.66,2.41,12.52-5.18,24.22-12.09,36.7-17.37,1.48-.62.2-2.78-1.26-2.16h0Z"/>
        <path class="st0" d="M177.87,341.67c3.52-.02,7.04-.55,10.53-.97,4.2-.51,8.4-1.05,12.63-1.25,2.78-.13,6.6-.6,8.79,1.49,2.49,2.37,2.93,6.38,3.05,9.62.16,4.25-.34,8.51-.96,12.71-.23,1.57,2.17,2.25,2.41.66.59-3.96,1.1-7.96,1.08-11.98-.02-3.8-.38-8.13-2.61-11.35-.96-1.39-2.33-2.64-3.97-3.18-1.49-.49-3.22-.52-4.77-.54-4.34-.06-8.7.48-13.01.99s-8.78,1.27-13.18,1.29c-1.61,0-1.61,2.51,0,2.5h0Z"/>
      </g>
      <g>
        <path class="st0" d="M306.97,361.81c-10.91,4.44-19.07,13.16-28.61,19.74-1.32.91-.07,3.08,1.26,2.16,9.32-6.43,17.36-15.16,28.01-19.49,1.47-.6.83-3.02-.66-2.41h0Z"/>
        <path class="st0" d="M261.41,373.14c8.33-2.43,17.1-4.27,25.79-4.66,3.16-.14,6.66.1,8.94,2.58,1.93,2.1,2.41,5.23,2.64,7.96.33,3.97.15,7.96.34,11.93.08,1.6,2.58,1.61,2.5,0-.19-3.83-.03-7.67-.31-11.49-.23-3.15-.71-6.56-2.61-9.19-2.07-2.87-5.35-4.06-8.77-4.31-4.47-.33-9.22.53-13.61,1.26-5.25.87-10.46,2.02-15.57,3.51-1.54.45-.89,2.86.66,2.41h0Z"/>
      </g>
    </g>
    <g>
      <path class="st23" d="M106.84,206.43c126.32-22.95,241.58-130.83,363.28-160.18,108.65-23.36,211.28,41.3,160.08,173.75-36.14,97.12-190.17,143.22-284.16,149.43-115.07,6.42-198.83-50.81-242.02-158.87"/>
      <path class="st13" d="M256.48,352.11c7.39-18.41,24.02-29.43,41.7-35.82,26.18-9.46,55.26-13.47,82.94-15.18,36.17-2.23,92.48-.36,114.85,33.54-51.17,20.67-106.85,31.93-149.92,34.78-33.28,1.85-63.93-1.65-91.75-10.13.53-2.44,1.24-4.85,2.18-7.19Z"/>
      <path class="st13" d="M548.17,269.63c.64-1.85-2.06-3.45-3.05-1.64-4.15,7.58-15.32,16.19-24.3,11.76-12.79-6.31-8.36-21.13-6.2-32.23.29-1.51-1.81-2.59-2.85-1.53-9.44,9.74-29.93,21.45-41.18,6.87-7.84-10.16.95-24.31,5.46-34.12.65-1.4-1.09-2.97-2.37-2.23-10,5.75-25.28,13.47-31.79-1.92-3.95-9.34-4.25-23.21,2.83-31.16,1.25-1.4.04-3.92-1.87-2.97-8.23,4.1-20.45,6.97-28.59.84-8.04-6.06-9.18-16.58-4.72-24.73,2.1-1.56,3.82-3.63,4.88-6.32.66-1.67-1.46-3.15-2.75-1.98-1.67,1.51-3.16,3.4-4.42,5.51-4.47,3.26-11.26,4.25-15.94,2.55-13.18-4.78-6.95-18.97-2.94-27.91.61-1.36-.75-2.44-1.93-2.37-4.7.27-9.65,1.21-14.33.48-6.81-1.06-13.96-9.49-6.93-15.79,5.42-4.86,12.51-6.96,18.13-11.54,1.33-1.08.26-3.51-1.42-3.12-5.47,1.28-12.32,2.76-17.73.41-3.02-1.31-4.6-3.24-5.27-5.5,36.8-19.18,73.7-35.7,111.21-44.75,108.65-23.36,211.28,41.3,160.08,173.75-12.62,33.92-39.66,61.61-73.47,83.55-13.99-4.14-12.78-21.69-8.56-33.92Z"/>
    </g>
    <g>
      <path class="st23" d="M560.49,46.97c4.96-14.05,13.97-25.98,24.08-36.58-4.38,5.78-8.4,11.82-11.74,18.16-3.34,6.34-6,12.99-7.54,19.81-.88,3.38-5.86,1.95-4.8-1.39h0Z"/>
      <path class="st23" d="M556.67,49.88c2.38-6.72,4.32-13.6,5.39-20.66,1.09-7.05,1.27-14.29.46-21.49,1.64,7.05,2.31,14.39,2.03,21.73-.26,7.34-1.44,14.66-3.08,21.81-.31,1.35-1.65,2.2-3,1.89-1.45-.32-2.31-1.88-1.8-3.28h0Z"/>
      <path class="st23" d="M557.91,53.26c10.84-11.17,24.35-18.82,38.37-25-6.58,3.77-12.91,7.94-18.79,12.61-5.87,4.67-11.33,9.84-15.77,15.65-2.2,2.69-6.13-.65-3.8-3.25h0Z"/>
    </g>
    <g>
      <g>
        <path class="st22" d="M97.95,185.41c-16.46-18.54-30.91-38.94-46.9-57.53-3.34-4.08,2.52-9.15,6.07-5.23,14.3,20.61,26.3,42.36,40.83,62.75h0Z"/>
        <path class="st22" d="M84.45,204.16c-22.04-1.19-43.8-8.54-65.57-10.5-5.25-.63-4.58-8.29.72-7.98,22.36,4.6,42.49,14.54,64.85,18.48h0Z"/>
      </g>
      <path class="st23" d="M120.7,210.25c-4.57-16.37-12.56-109.1-41.98-101.04-27.56,8.63,7.94,56.51,15.02,67-10.39-14.41-54.83-57.95-68.18-22.93-9.89,24.44,33.84,38.22,47.35,50.26-12.95,1.45-51.46-2.42-57.99,15.97-5.42,14.57,12,18.65,22.7,19.42,32.79,1.29,55.58-14.63,82.38-27.65"/>
      <g>
        <path class="st22" d="M92.47,148.37c-4.13-9.49-7.47-19.71-10.55-29.6-2.94-9.93-5.85-20.28-7.68-30.47,4.14,9.49,7.48,19.71,10.55,29.6,2.94,9.94,5.84,20.28,7.68,30.47h0Z"/>
        <path class="st22" d="M57.38,174.67c-15.43-9.98-25.09-27.03-42.08-34.91,18.58,3.89,29.69,22.05,42.08,34.91h0Z"/>
        <path class="st22" d="M48.7,221.52C32.69,222.76,16.02,223.34,0,224.94c14.71-5.63,33.3-6.3,48.7-3.41h0Z"/>
      </g>
    </g>
    <g>
      <g>
        <path class="st11" d="M560.17,169.81c9.65,0,9.67-15,0-15s-9.67,15,0,15h0Z"/>
        <g class="st25">
          <path class="st0" d="M560.17,167.31c6.43,0,6.45-10,0-10s-6.45,10,0,10h0Z"/>
        </g>
        <path class="st4" d="M552.14,158.4c2.41,0,2.42-3.75,0-3.75s-2.42,3.75,0,3.75h0Z"/>
      </g>
      <path class="st24" d="M639.17,183.43c6.41,1.14,13.05,2.13,19.63,3.4,6.58,1.28,13.18,2.8,19.39,5.13-13.35-.67-26.06,1.8-39.31,3.46-3.33.43-6.37-1.92-6.79-5.25-.58-3.99,3.15-7.51,7.08-6.75h0Z"/>
      <path class="st20" d="M523.07,206.98c3.38,0,3.38-5.25,0-5.25s-3.38,5.25,0,5.25h0Z"/>
    </g>
    <g>
      <path class="st22" d="M143.59,174.4c87.16-4.97,376.34-166.18,345.23,42.32-23.48,170.89-329.15,92.4-345.23-42.32"/>
      <g class="st14">
        <path class="st18" d="M453.57,211.41c-2.62,17.17-16.1,36.59-28.62,48.36-20.46,18.77-36.13,14.15-38.74-14.11,0,0,1.5.42,1.5.42-4.91,6.47-10.04,12.79-15.52,18.81-22.26,24.5-42.84,33.59-45.73-8.61,0,0,.73.1.73.1-2.19,6.02-4.81,12-8.96,16.97-7.37,9.1-17.87,9.85-25.05.08-5.74-8.02-7.2-18.3-6.72-27.91,0,0,1.46.82,1.46.82-5,3.46-10.12,6.79-15.47,9.74-14.76,8.33-34.55,14.35-34.53-9.99-.04-3.11.34-6.17.72-9.21l1.92.59c-1.37,2.72-2.98,5.35-5.03,7.68-6.57,7.8-17.11,8.79-25.25,2.77-10.04-7.19-14.59-20.37-12.7-32.33,0,0,.54.62.54.62-12.2.22-20.32-5.63-29.13-13.28-.1-.08.03-.24.13-.15,8.9,7.29,17.04,12.79,29,12.35.33,0,.59.3.54.62-2.01,13.94,5.76,31,20.4,34.07,9.05,1.63,16.11-5.65,19.67-13.23.25-.5.86-.7,1.37-.45.4.2.61.63.55,1.04-.37,2.97-.73,5.95-.68,8.91.03,4.01.46,8.05,2.67,11.39,8.58,11.76,35.3-6.78,44.23-12.68.61-.44,1.52.08,1.46.82-.62,11.39,1.58,27.27,12.99,32.75,13.02,4.67,21.47-12.31,25.17-22.25.11-.38.73-.29.73.1.26,4.03.71,8.06,1.5,12.02,6.36,32.21,29.83,10.45,42.54-4.19,5.34-6.07,10.26-12.5,15.12-18.98.4-.61,1.47-.31,1.5.42,4.96,47.02,40.24,13.65,54.15-8.4,5.02-7.91,9.65-16.39,11.35-25.71.01-.13.22-.1.2.03h0Z"/>
      </g>
    </g>
  </g>
  <g class="st19">
    <g>
      <path class="st0" d="M277.25,317.37c-2.11,6.44-5.83,12.04-9.47,17.69-3.1,4.8-6.15,9.86-6.78,15.66-.27,2.51-.11,5.17.84,7.53.87,2.18,2.09,4.21,3.41,6.15,3.27,4.83,7.12,9.26,10.97,13.63s7.62,8.16,10.81,12.69c.92,1.31,3.09.06,2.16-1.26-2.69-3.83-5.95-7.26-9.05-10.76-3.85-4.35-7.74-8.7-11.18-13.39-2.78-3.77-5.55-7.74-5.55-12.59,0-5.63,2.89-10.64,5.82-15.26,3.97-6.25,8.13-12.32,10.46-19.42.5-1.53-1.91-2.19-2.41-.66h0Z"/>
      <path class="st0" d="M296.47,381.17c-4.86-1.71-9.6-3.84-14.65-4.96-2.04-.45-4.23-.87-5.94.6-1.99,1.71-2.88,4.62-3.53,7.06-.76,2.86-1.23,5.85-1.41,8.8-.1,1.61,2.4,1.6,2.5,0,.13-2.27.48-4.53.98-6.74s1.12-4.97,2.66-6.8c1.15-1.36,2.71-.84,4.43-.44,2.57.61,5.07,1.47,7.55,2.37,2.26.81,4.48,1.72,6.74,2.52,1.52.54,2.17-1.88.66-2.41h0Z"/>
    </g>
    <path class="st6" d="M382.38,160.67c29.45-33.79,48.55,3.17,47.96,33.23-.79,40.15-40.96,89.92-79.15,101.01-43.9,9.38-64.07,4.96-38.23-36.22,20.49-30.98,29.95-81.38,64.57-100.79"/>
    <g>
      <path class="st15" d="M125.16,278.39c56.04-53.16,44.32-148.38,94.84-206.36,38.32-46.75,142.35-43.51,172.27,14.12,66.05,130.42-75.89,293.3-211.71,242.93-21.37-8.92-48.62-27.81-57.97-50.52"/>
      <path class="st3" d="M232.99,303.95c11.64-35.31,45.26-64.44,78.78-78.53,14.69-6.17,31.95-10.83,47.84-6.73,12.69,3.27,21.21,11.92,26.2,23.04-31.1,55.69-89.84,96.68-153.38,96.71-3.53-10.92-3.28-22.82.57-34.5Z"/>
      <path class="st3" d="M387.48,174.29c-.24-1.65-2.58-1.5-2.58.18,0,8.65-3.5,22.46-12.97,25.48-12.06,3.85-16.88-9.11-17.71-18.62-.12-1.43-2.32-1.64-2.56-.17-1.73,10.59-10.22,20.41-21.74,19.97-13.14-.51-17.34-9.61-18.18-21.21-.09-1.23-1.94-1.71-2.45-.49-2.89,6.98-11.07,16.07-19.66,14.22-9.25-2-8.92-10.82-9.79-18.46-.13-1.19-1.94-1.75-2.45-.49-1.37,3.35-2.47,7.6-4.92,10.35-3.59,4.03-10.18,4.75-14.8,1.86-6.31-3.93-8.94-11.37-7.81-18.43.29-1.02.55-2.04.73-3.06.3-1.69-2.04-2.07-2.54-.52-.34,1.05-.58,2.13-.75,3.21-1.01,3.57-2.63,7.05-5.12,9.77-4.1,4.49-11.54,8.5-17.16,3.57-6.52-5.72-6.37-15.25-6.88-23.24-.1-1.56-2.13-1.48-2.56-.17-3.62,11.02-14.42,16.44-25.28,11.56-4.03-1.81-7.59-4.66-9.61-8.15,8.84-29.26,18.65-65.7,39.34-89.45,38.32-46.75,142.35-43.51,172.27,14.12,16.98,33.54,20.19,69.22,13.31,102.87-10.1,5.01-16.74-5.55-18.09-14.74Z"/>
    </g>
    <g>
      <path class="st15" d="M308.04,36.24c3.69-8.39,9.55-15.58,16.81-20.92-5.85,6.28-10.18,14.21-12.05,22.46-.93,3.53-6.07,1.87-4.76-1.54h0Z"/>
      <path class="st15" d="M306.6,40.81c-1.14-8.55-1.27-17.34-.89-25.94.72,4.24,1.39,8.49,2.32,12.64.93,4.14,2.17,8.19,3.46,12.27.42,1.32-.31,2.73-1.63,3.16-1.49.49-3.1-.56-3.26-2.11h0Z"/>
      <path class="st15" d="M305.52,43.41c-4.76-8.31-9.55-16.51-15.43-24.11,7.1,6.46,13.41,13.88,19.54,21.26,2.19,2.85-2.2,5.91-4.11,2.85h0Z"/>
    </g>
    <g>
      <g>
        <path class="st6" d="M115.02,266.74c-10.81-7.74-17.6-19.81-25.75-29.99-2.67-3.36-5.48-6.52-8.54-9.18-1.67-1.46-1.85-3.99-.39-5.66,1.59-1.86,4.57-1.82,6.12.08,5.95,7.08,9.86,15.15,14.04,23.14,4.06,7.74,8.19,15.47,14.53,21.61h0Z"/>
        <path class="st6" d="M108.71,278.85c-16.8-2.6-32.84-11.57-50.09-9.42-2.2.25-4.19-1.32-4.45-3.53-.3-2.43,1.73-4.6,4.18-4.47,4.72.18,9.35.99,13.74,2.26,12.88,3.67,23.98,11.18,36.62,15.16h0Z"/>
      </g>
      <path class="st15" d="M131.97,277.25c-4.16-13.34-5.73-45.67-21.08-51.76-21.33-8.27-6.8,23.83-4.42,30.15-5.61-6.1-34.73-33.3-43.08-13.26-5.53,14.01,24.33,23.64,31.23,29.65-10.42-.58-62.6,4.95-31.65,20.99,18.15,9.14,58.01,3.8,69.82-13.23"/>
      <g>
        <path class="st6" d="M113.43,243.49c-2.55-5.42-4.18-11.12-5.96-16.78-1.27-4.22-3.99-12.66-5.43-16.83,7.76,9.14,10.62,21.89,11.39,33.6h0Z"/>
        <path class="st6" d="M82.27,252.77c-11.03-7.39-19.04-18.95-32.08-23.1,13.96-.18,24.36,12.96,32.08,23.1h0Z"/>
        <path class="st6" d="M75.4,285.03c-11.39,2.85-23.28,3.03-34.92,1.75,11.39-2.87,23.28-3.02,34.92-1.75h0Z"/>
      </g>
    </g>
    <g>
      <g>
        <g>
          <path class="st11" d="M354.19,122.35c9.65,0,9.67-15,0-15s-9.67,15,0,15h0Z"/>
          <g class="st25">
            <path class="st0" d="M354.19,119.85c6.43,0,6.45-10,0-10s-6.45,10,0,10h0Z"/>
          </g>
          <path class="st4" d="M348.67,111.91c2.41,0,2.42-3.75,0-3.75s-2.42,3.75,0,3.75h0Z"/>
        </g>
        <g>
          <path class="st11" d="M295.81,122.46c9.65,0,9.67-15,0-15s-9.67,15,0,15h0Z"/>
          <g class="st25">
            <path class="st0" d="M295.81,119.96c6.43,0,6.45-10,0-10s-6.45,10,0,10h0Z"/>
          </g>
          <path class="st4" d="M290.29,112.03c2.41,0,2.42-3.75,0-3.75s-2.42,3.75,0,3.75h0Z"/>
        </g>
      </g>
      <path class="st24" d="M333.96,153.42c.74,10.37-.92,19.63-.4,29.75-4.26-8.41-6.88-18.47-11.18-26.6-1.61-2.99-.49-6.73,2.51-8.34,3.88-2.21,8.99.76,9.07,5.18h0Z"/>
      <g>
        <path class="st20" d="M266.75,151.73c3.38,0,3.38-5.25,0-5.25s-3.38,5.25,0,5.25h0Z"/>
        <path class="st20" d="M378.11,150.45c3.38,0,3.38-5.25,0-5.25s-3.38,5.25,0,5.25h0Z"/>
      </g>
    </g>
    <g>
      <path class="st6" d="M119.87,276.97c13.29-35.73,21.92-67.95,29.88-94.01,12.23-40.03,61.84-82.06,95.75-41.95,50.69,57.83-56.05,166.55-125.63,135.96"/>
      <g class="st14">
        <path class="st18" d="M237.18,157.14c16.29,19.65,1.37,49.14-7.91,30.98-1.02-2.19-1.67-4.49-2.26-6.78,0,0,1.73-.26,1.73-.26.93,9.48,3.71,19.25,2.61,28.91-.18,1.42-.96,2.82-1.76,3.99-1.53,2.37-3.55,4.49-6.05,5.91-3.73,2.34-9.08,1.7-11.58-2.11-2.49-3.48-2.91-7.94-2.92-12.07-.02-.38.61-.42.62-.02.25,2.94.73,5.89,1.11,8.85.39,2.96.76,5.92,1,8.91.26,4.48.59,9.27-1.38,13.49-1.59,2.69-4.44,4.52-7.32,5.67-8.28,3.04-14.65-5.51-17.34-12.26-1.18-2.81-2.07-5.72-2.68-8.71l1.93-.25c.47,4.58,1.51,9.24,2.15,13.85.53,4.15,1.21,8.46.38,12.65-1.03,3.42-3.2,6.77-6.01,9.45-3.78,3.64-9.6,4.28-13.31.14-3.23-3.47-4.47-8.26-5.17-12.76,0,0,1.64-.18,1.64-.18.18,3.63-.51,7.22-1.76,10.56-4.02,11.31-16.55,21.17-19.97,3.39-.03-.12.17-.17.2-.04.84,3.16,1.94,6.98,5.01,8.57,3.22,1.51,6.45-1.16,8.5-3.51,4.28-5.17,6.76-12.15,6.38-18.85-.03-.45.31-.85.76-.88.43-.03.81.28.88.7.49,2.88,1.24,5.72,2.52,8.26,5.51,10.56,14.19,4.49,17.85-3.95,1.57-4.11.45-8.94.03-13.25-.6-4.7-1.58-9.24-2.01-14.01-.04-.54.36-1.01.89-1.05.5-.04.94.3,1.03.78,1.55,7.35,5.37,18.59,13.58,20.36,3.97.54,8.48-1.92,10.78-5.23,1.95-3.91,1.72-8.55,1.59-12.86-.26-5.94-1.37-11.79-1.88-17.76l.62-.02c-.03,2.71.21,5.48,1.08,8.06,3.43,10.35,13.35,7.33,17.79-.47,1.61-2.2,1.72-4.88,1.6-7.54-.26-5.45-1.15-10.9-2.01-16.3-.43-2.73-.91-5.42-1.13-8.27-.04-.48.32-.9.81-.94.44-.03.83.27.92.68,1.06,3.88,2.21,9.35,6.11,11.09,4.32.98,6.76-5.27,7.66-8.66,1.67-6.63.77-13.88-2.01-20.12-.92-2.12-2.15-4.08-3.46-6-.08-.1.08-.22.16-.12h0Z"/>
      </g>
    </g>
    <g>
      <path class="st0" d="M214.7,321.21c-5.08,9.45-10.08,19.73-10.73,30.62-.54,9.04,2.71,17.46,7.7,24.87,3.7,5.5,8.11,10.5,12.65,15.32,1.11,1.17,2.87-.6,1.77-1.77-6.97-7.39-14.25-15.52-17.73-25.25-2.92-8.17-2.17-16.62.5-24.75,2.03-6.18,4.92-12.05,8-17.78.76-1.42-1.4-2.68-2.16-1.26h0Z"/>
      <path class="st0" d="M236.96,386.11c-4.53-3.11-9.59-5.91-14.7-7.91-1.95-.76-4.29-1.62-6.19-.29-2.37,1.65-3.58,4.87-4.64,7.42-1.25,3-2.07,6.38-3.75,9.18-.83,1.38,1.33,2.64,2.16,1.26,1.33-2.23,2.08-4.86,3-7.27,1.01-2.63,2.03-5.68,3.91-7.85.58-.67,1.09-1.02,1.71-.96.89.08,1.92.45,2.8.79,2.76,1.04,5.38,2.46,7.95,3.89,2.2,1.22,4.41,2.47,6.49,3.9,1.33.91,2.58-1.25,1.26-2.16h0Z"/>
    </g>
  </g>
  <g id="Text">
    <g>
      <path class="st1" d="M678.03,249.97v-71.52c0-16.08-4.05-24.48-17.65-24.48-12.88,0-18.6,7.92-18.6,24.48v71.52h-39.11v-71.52c0-16.08-4.53-24.48-18.36-24.48-12.4,0-17.89,7.92-17.89,24.48v71.52h-39.11v-71.52c0-41.76,17.89-60,54.85-60,25.04,0,39.11,14.64,40.07,19.44,1.19-5.04,14.79-19.44,40.78-19.44,39.11,0,54.13,21.6,54.13,60v71.52h-39.11Z"/>
      <path class="st1" d="M740.99,112.2v-34.08h39.11v34.08h-39.11ZM740.99,249.97V121.32h39.11v128.64h-39.11Z"/>
      <path class="st1" d="M923.19,249.97h-39.11v-71.52c0-16.08-4.05-24.48-20.27-24.48-14.79,0-20.75,7.92-20.75,24.48v71.52h-39.11v-71.52c0-41.76,22.89-60,60.1-60,39.83,0,59.14,21.6,59.14,60v71.52Z"/>
      <path class="st1" d="M1003.32,252.85c-39.83,0-63.91-24.24-63.91-67.2s26.47-67.2,63.91-67.2c40.06,0,62.96,24.72,62.96,67.2s-25.52,67.2-62.96,67.2ZM1003.08,153.96c-15.02,0-24.8,9.6-24.8,31.68s10.25,31.68,24.8,31.68,24.56-10.08,24.56-31.68c0-22.8-8.11-31.68-24.56-31.68Z"/>
      <path class="st1" d="M1133.76,256.45l-69.64-135.12h43.4l26.23,62.64,26.23-62.64h43.4l-69.64,135.12Z"/>
      <path class="st1" d="M1289.01,249.97v-24.48h-1.67c-3.1,10.56-12.16,27.36-37.92,27.36-27.19,0-48.17-22.32-48.17-66s26.47-68.4,63.91-68.4c45.79,0,62.96,24,62.96,67.44v64.08h-39.11ZM1264.92,153.96c-15.02,0-24.8,10.08-24.8,31.92s8.82,31.44,24.56,31.44c14.79,0,24.33-11.52,24.33-31.44,0-23.04-9.06-31.92-24.09-31.92Z"/>
    </g>
    <g>
      <path class="st17" d="M572.42,373.77c-.77-2.41-1.59-4.88-2.47-7.42-.88-2.54-1.76-5.07-2.63-7.58h-26.89c-.87,2.53-1.74,5.06-2.62,7.6-.87,2.54-1.69,5.01-2.44,7.4h-16.1c2.59-7.47,5.05-14.37,7.37-20.7,2.33-6.33,4.6-12.3,6.83-17.9,2.23-5.6,4.42-10.92,6.58-15.95,2.16-5.03,4.4-9.95,6.73-14.75h14.69c2.26,4.8,4.49,9.72,6.69,14.75,2.2,5.03,4.41,10.35,6.64,15.95,2.23,5.6,4.51,11.57,6.84,17.9,2.33,6.33,4.79,13.23,7.39,20.7h-16.6ZM553.79,320.17c-.35,1.01-.85,2.38-1.52,4.11-.67,1.73-1.42,3.73-2.27,6-.85,2.27-1.8,4.77-2.85,7.5-1.05,2.73-2.12,5.59-3.21,8.59h19.69c-1.05-3-2.07-5.88-3.06-8.61-.99-2.74-1.93-5.24-2.81-7.51-.89-2.27-1.67-4.27-2.34-6-.67-1.73-1.21-3.09-1.62-4.07Z"/>
      <path class="st17" d="M607.8,304.47h15.5v69.3h-15.5v-69.3Z"/>
      <path class="st17" d="M643.67,337.17h28.82v13.5h-28.82v-13.5Z"/>
      <path class="st17" d="M713.52,303.67c10.27,0,18.15,1.82,23.65,5.45,5.5,3.63,8.25,9.58,8.25,17.85s-2.78,14.35-8.35,18.05-13.51,5.55-23.85,5.55h-4.87v23.2h-15.5v-68.3c3.38-.67,6.96-1.13,10.73-1.4,3.78-.27,7.09-.4,9.94-.4ZM714.52,316.97c-1.13,0-2.24.03-3.33.1-1.09.07-2.04.13-2.83.2v20h4.87c5.37,0,9.41-.73,12.12-2.2,2.72-1.47,4.07-4.2,4.07-8.2,0-1.93-.35-3.53-1.04-4.8-.7-1.27-1.69-2.28-2.98-3.05-1.29-.77-2.87-1.3-4.72-1.6-1.86-.3-3.91-.45-6.16-.45Z"/>
      <path class="st17" d="M832.36,339.07c0,5.93-.88,11.15-2.63,15.65-1.76,4.5-4.16,8.27-7.2,11.3-3.05,3.03-6.67,5.32-10.88,6.85-4.21,1.53-8.73,2.3-13.56,2.3s-9.14-.77-13.31-2.3c-4.17-1.53-7.82-3.82-10.93-6.85-3.11-3.03-5.56-6.8-7.35-11.3-1.79-4.5-2.68-9.72-2.68-15.65s.93-11.15,2.78-15.65c1.85-4.5,4.35-8.28,7.5-11.35,3.15-3.07,6.79-5.37,10.93-6.9,4.14-1.53,8.5-2.3,13.07-2.3s9.14.77,13.32,2.3c4.17,1.53,7.82,3.83,10.93,6.9,3.11,3.07,5.56,6.85,7.35,11.35,1.79,4.5,2.68,9.72,2.68,15.65ZM779.8,339.07c0,3.4.41,6.47,1.24,9.2.83,2.73,2.02,5.08,3.58,7.05,1.56,1.97,3.46,3.48,5.71,4.55,2.25,1.07,4.83,1.6,7.75,1.6s5.42-.53,7.7-1.6c2.29-1.07,4.21-2.58,5.76-4.55,1.56-1.97,2.75-4.32,3.58-7.05.83-2.73,1.24-5.8,1.24-9.2s-.41-6.48-1.24-9.25c-.83-2.77-2.02-5.13-3.58-7.1-1.56-1.97-3.48-3.48-5.76-4.55s-4.85-1.6-7.7-1.6-5.5.55-7.75,1.65c-2.25,1.1-4.16,2.63-5.71,4.6-1.56,1.97-2.75,4.33-3.58,7.1-.83,2.77-1.24,5.82-1.24,9.15Z"/>
      <path class="st17" d="M900.5,311.87c.79,2.73,1.67,5.82,2.63,9.25.96,3.43,1.98,6.98,3.08,10.65,1.09,3.67,2.2,7.33,3.32,11,1.12,3.67,2.21,7.07,3.27,10.2.86-3.4,1.75-7.1,2.65-11.1.9-4,1.75-8.13,2.54-12.4.8-4.27,1.58-8.52,2.35-12.75.77-4.23,1.48-8.32,2.15-12.25h16.1c-2.33,11.6-5.01,23.37-8.05,35.3-3.03,11.93-6.31,23.27-9.85,34h-14.18c-2.32-6.4-4.56-13.12-6.74-20.15-2.18-7.03-4.33-14.08-6.45-21.15-2.12,7.07-4.25,14.12-6.37,21.15-2.12,7.04-4.34,13.75-6.67,20.15h-14.17c-3.53-10.73-6.8-22.07-9.83-34-3.03-11.93-5.7-23.7-8.03-35.3h16.79c.66,3.93,1.4,8.02,2.2,12.25.8,4.23,1.63,8.48,2.5,12.75.86,4.27,1.75,8.4,2.65,12.4.9,4,1.81,7.7,2.75,11.1,1.19-3.27,2.36-6.73,3.48-10.4,1.13-3.67,2.22-7.33,3.29-11,1.06-3.67,2.04-7.2,2.94-10.6.9-3.4,1.71-6.43,2.44-9.1h13.21Z"/>
      <path class="st17" d="M958.36,373.77v-69.3h46.5v13.1h-31v13.6h27.52v12.8h-27.52v16.7h33.29v13.1h-48.79Z"/>
      <path class="st17" d="M1048.68,303.67c10.33,0,18.25,1.85,23.75,5.55,5.5,3.7,8.25,9.45,8.25,17.25,0,4.87-1.11,8.82-3.33,11.85-2.22,3.03-5.42,5.42-9.59,7.15,1.39,1.73,2.85,3.72,4.37,5.95,1.52,2.23,3.03,4.57,4.52,7s2.93,4.97,4.32,7.6c1.39,2.63,2.68,5.22,3.88,7.75h-17.33c-1.26-2.27-2.54-4.57-3.84-6.9-1.3-2.33-2.63-4.6-3.99-6.8-1.36-2.2-2.71-4.28-4.04-6.25-1.33-1.97-2.66-3.75-3.99-5.35h-7.65v25.3h-15.5v-68.3c3.38-.67,6.87-1.13,10.48-1.4,3.61-.27,6.84-.4,9.69-.4ZM1049.58,316.97c-1.13,0-2.14.03-3.03.1-.89.07-1.74.13-2.53.2v18.8h4.37c5.83,0,10-.73,12.52-2.2,2.52-1.46,3.78-3.96,3.78-7.5s-1.28-5.82-3.83-7.25c-2.55-1.43-6.31-2.15-11.28-2.15Z"/>
      <path class="st17" d="M1104.72,373.77v-69.3h46.5v13.1h-31v13.6h27.52v12.8h-27.52v16.7h33.29v13.1h-48.79Z"/>
      <path class="st17" d="M1235.19,339.07c0,6-.93,11.23-2.78,15.7-1.86,4.47-4.49,8.17-7.9,11.1-3.41,2.93-7.57,5.13-12.47,6.6-4.9,1.47-10.4,2.2-16.5,2.2-2.78,0-6.03-.12-9.74-.35-3.71-.23-7.35-.72-10.93-1.45v-67.5c3.58-.67,7.3-1.12,11.18-1.35,3.88-.23,7.2-.35,9.99-.35,5.89,0,11.24.67,16.05,2,4.8,1.33,8.93,3.43,12.37,6.3,3.44,2.87,6.09,6.53,7.95,11,1.85,4.47,2.78,9.83,2.78,16.1ZM1190.38,361.07c.73.07,1.57.12,2.53.15.96.03,2.1.05,3.43.05,7.75,0,13.5-1.97,17.24-5.9,3.74-3.93,5.61-9.37,5.61-16.3s-1.79-12.77-5.37-16.5c-3.58-3.73-9.24-5.6-16.99-5.6-1.06,0-2.15.02-3.28.05-1.13.03-2.19.12-3.18.25v43.8Z"/>
    </g>
  </g>
  <g class="st19">
    <g>
      <g>
        <path class="st12" d="M101.37,303.3c-6.15-2.77-12.74-4.14-19.36-5.14-6.61-.97-13.27-1.46-19.96-1.79-2.22-.11-3.92-2-3.81-4.22.1-2.5,2.58-4.33,5-3.7,13.13,3.46,26.83,7.04,38.13,14.85h0Z"/>
        <path class="st12" d="M105,315.41c-6.59.37-12.8,2.36-18.67,4.96-5.89,2.6-11.47,5.84-17.3,9.02-1.95,1.07-4.39.35-5.46-1.6-1.23-2.19-.06-5.07,2.35-5.78,12.37-3.8,25.9-8.56,39.07-6.6h0Z"/>
      </g>
      <path class="st5" d="M138.34,305.56c-7.37-8.95-20.01-14.21-28.95-20.53-7.89-5.79-17.9-15.27-28.43-13.69-26.85,4.74,8.42,24.74,13.16,28.43-6.84,1.05-31.06-1.58-28.95,12.11,1.58,9.48,21.58,5.79,28.95,5.79-5.26,3.16-15.79,8.95-15.79,15.79.52,9.47,11.58,8.42,17.9,6.84,16.85-4.21,33.17-19.48,43.17-33.16"/>
      <g>
        <path class="st12" d="M98.34,293.02c-12.78-5.63-20.7-17.9-32.68-24.81,13.83,3.11,22.51,15.94,32.68,24.81h0Z"/>
        <path class="st12" d="M78.37,312.38c-11.26,1.46-22.7,1.47-33.89-.6,11.17-2.08,22.81-2.05,33.89.6h0Z"/>
        <path class="st12" d="M99.55,328.11c-4.01,4.2-8.1,8.07-12.6,11.71-4.51,3.57-9.54,6.9-15.23,8.25,4.01-3.03,9.44-7.42,13.36-10.6,4.5-3.54,9.12-7.13,14.47-9.37h0Z"/>
      </g>
    </g>
    <g>
      <path class="st0" d="M288.96,319.2c-6.76,7.29-11.93,16.02-13.26,26-1.22,9.09.77,18.22,4.09,26.67,2.11,5.36,4.71,10.5,7.53,15.52.79,1.4,2.95.14,2.16-1.26-8.61-15.35-16.02-33.65-8.4-50.94,2.33-5.29,5.74-9.99,9.66-14.22,1.09-1.18-.67-2.95-1.77-1.77h0Z"/>
      <path class="st0" d="M276.3,389.65c2.04-4.9,2.29-10.45,4.6-15.26.39-.82.56-1.17,1.45-1.42,1.05-.3,2.21-.05,3.24.24,2.95.84,5.67,2.52,8.24,4.15,2.56,1.63,5,3.5,7.66,4.97,1.41.78,2.67-1.38,1.26-2.16-5.49-3.04-10.25-7.53-16.38-9.34-2.27-.67-5.45-.93-7.03,1.25s-2.16,5.18-2.86,7.69c-.84,3.04-1.39,6.29-2.6,9.21-.62,1.48,1.8,2.13,2.41.66h0Z"/>
    </g>
    <g>
      <path class="st5" d="M280.43,333.33c73.7-25.27,103.18-73.7,105.29-153.72,2.11-56.85-18.95-122.13-73.7-143.19-48.43-16.85-120.03-2.11-132.66,54.75-10.53,52.64,16.85,107.39-12.64,155.82-18.95,35.79-68.43,63.18-10.53,80.02,44.44,12.92,83.65,20.63,124.24,6.32"/>
      <path class="st21" d="M337.51,203.59c-22.05,7.98-41.65,27.44-54.84,46.49-16.53,23.89-31.78,59.23-25.26,89.12,7.65-1.24,15.31-3.16,23.02-5.88,63.15-21.65,93.81-60.33,102.63-121.29-10.2-11.57-30.83-13.78-45.55-8.45Z"/>
      <path class="st21" d="M197.61,160.58c.27-1.11,2.13-1.21,2.34,0,1.17,6.84,5.11,16.53,13.65,16.06,8.01-.44,12.11-7.88,13.87-14.85.3-1.19,2-1.12,2.34,0,2.08,7.02,7.32,20.94,17.19,18.14,9.66-2.75,9.48-12.82,11.14-20.96.25-1.23,2-1.08,2.34,0,1.7,5.56,3.07,14.62,10.11,15.77,10.75,1.75,15.88-7.81,16.16-17.06.04-1.38,1.96-1.62,2.38-.32,1.4,4.37,3.11,9.35,6.29,12.78,2.09,2.25,5,4.42,8.27,3.06,5.26-2.21,4.14-6.86,4.04-11.08-.02-1.05,1.34-1.61,2.07-.86,4.51,4.71,10.93,11.44,18.04,7.06,6.29-3.88,9.12-10.38,7.37-17.58-.37-1.52,1.91-2.15,2.34-.64,2.06,7.33,12.06,15.24,18.68,7.18,3.35-4.08,3.51-9.48,3.55-14.52,0-1.29,1.58-1.54,2.26-.61,3.75,5.16,8.05,12.26,14.87,13.62,2.65.53,5.72.57,8.35-.22-3.91-50.08-26.06-100.98-73.19-119.11-48.43-16.85-120.03-2.11-132.66,54.75-5.53,27.64-.61,55.86,1.04,83.44,7.42,2.64,15.26-6.06,17.21-14.04Z"/>
    </g>
    <g>
      <path class="st5" d="M252.76,36.05c-5.16-9.21-10.28-18.51-18.71-25.14,9.39,5.21,16.35,14.07,22.87,22.37,2.1,2.88-2.31,5.83-4.16,2.77h0Z"/>
      <path class="st5" d="M252.36,34.97c-.67-12.15.17-24.01-.49-35.95,2.31,11.73,3.16,23.8,5.45,35.33.57,3.49-4.65,4.15-4.96.62h0Z"/>
      <path class="st5" d="M252.34,37.63c.74-10.78,6.41-20.09,12.9-28.21-2.47,4.46-4.7,9.06-6.18,13.82-1.49,4.75-2.14,9.65-1.71,14.39.17,3.61-5.17,3.62-5,0h0Z"/>
    </g>
    <g>
      <g>
        <g>
          <path class="st11" d="M261.04,116.64c9.65,0,9.67-15,0-15s-9.67,15,0,15h0Z"/>
          <g class="st25">
            <path class="st0" d="M261.04,114.14c6.43,0,6.45-10,0-10s-6.45,10,0,10h0Z"/>
          </g>
          <path class="st4" d="M265.88,106.17c2.41,0,2.42-3.75,0-3.75s-2.42,3.75,0,3.75h0Z"/>
        </g>
        <g>
          <path class="st11" d="M327.36,106.11c9.65,0,9.67-15,0-15s-9.67,15,0,15h0Z"/>
          <g class="st25">
            <path class="st0" d="M327.36,103.61c6.43,0,6.45-10,0-10s-6.45,10,0,10h0Z"/>
          </g>
          <path class="st4" d="M332.2,95.64c2.41,0,2.42-3.75,0-3.75s-2.42,3.75,0,3.75h0Z"/>
        </g>
      </g>
      <path class="st24" d="M307.46,130.55l5.07,25.65-15.99-20.68c-2.08-2.69-1.59-6.57,1.11-8.65,3.48-2.83,9.05-.7,9.82,3.68h0Z"/>
      <g>
        <path class="st20" d="M241.48,144.2c3.38,0,3.38-5.25,0-5.25s-3.38,5.25,0,5.25h0Z"/>
        <path class="st20" d="M355.81,127.86c3.38,0,3.38-5.25,0-5.25s-3.38,5.25,0,5.25h0Z"/>
      </g>
    </g>
    <g>
      <path class="st12" d="M111.44,289.96c14.74-21.06,31.59-31.59,42.12-52.64,6.32-18.95,6.32-40.01,12.64-58.96,16.84-42.11,75.8-37.9,94.76,4.21,35.8,84.23-88.44,170.56-151.61,107.39"/>
      <g class="st14">
        <path class="st18" d="M234.86,180.89c5.21,8.05,11.97,15.85,13.72,25.59,1.12,10.6-9.77,23-19.11,12.65-1.93-2.21-3.2-4.82-4.17-7.47-.17-.43.05-.92.48-1.08.37-.13.77.01.98.33,1.34,2.07,2.51,4.26,3.38,6.57,2.59,6.9,2.33,15.03-1.68,21.32-4.25,6.86-12.64,9.5-18.77,3.34-1.76-1.72-3.13-3.78-4.28-5.93-.11-.21-.03-.47.17-.58.2-.11.46-.04.57.16,2.6,4.02,3.88,8.73,4.38,13.43,1.75,18.97-9.52,31.69-24.38,13.54,0,0,1.81-.84,1.81-.84,1.21,7.26-.07,15-4.47,21.07-7.26,8.75-13.68.05-16.21-7.53,0,0,1.68-.52,1.68-.52.84,3.59.66,7.46-.79,10.88-4.94,11.64-20.63,14-23.36-.5-.03-.12.17-.17.19-.04.46,1.69,1.09,3.34,2.03,4.8,2.81,4.75,8.82,5.58,13.32,2.76,5.96-3.42,8.7-10.94,6.89-17.47-.26-1.08,1.3-1.54,1.68-.52,2.05,5.52,7.19,14.35,12.94,6.88,3.94-5.41,5.07-12.88,4.06-19.43-.18-1.03,1.16-1.62,1.81-.84,9.81,12.32,19.05,10.93,21.34-5.26.77-6.77-.12-14.02-3.65-19.94,0,0,.75-.42.75-.42,1.05,2.12,2.33,4.15,4.01,5.8,5.8,5.97,13.69,3.37,17.63-3.23,5.09-8.26,3.02-19.01-2.42-26.55,0,0,1.46-.75,1.46-.75,1.72,4.59,5.04,10.11,10.42,10.14,5.44-.27,8.5-5.93,9.62-10.73.61-2.52.21-5.19-.6-7.77-1.65-5.2-4.55-9.96-7.34-14.65-1.43-2.36-2.92-4.69-4.27-7.11-.07-.1.11-.21.17-.1h0Z"/>
      </g>
    </g>
    <g>
      <path class="st0" d="M229.54,314.85c-5.23,5.69-10.37,11.7-14.15,18.48-2.41,4.33-4.25,9.13-4.33,14.14-.16,9.73,6.42,18.04,11.97,25.42,4.65,6.19,9.32,12.35,13.56,18.83.88,1.34,3.04.09,2.16-1.26-3.73-5.7-7.78-11.17-11.88-16.61-3.16-4.18-6.4-8.34-9.07-12.86-2.08-3.52-3.83-7.37-4.17-11.49-.38-4.56.92-9.01,2.94-13.06,3.68-7.38,9.2-13.79,14.74-19.83,1.09-1.18-.68-2.96-1.77-1.77h0Z"/>
      <path class="st0" d="M224.71,394.56c.21-3.09.45-6.21,1.27-9.21.65-2.39,1.84-5.43,4.58-6,2.95-.62,6.28,1.29,8.76,2.64,2.93,1.59,5.68,3.46,8.52,5.18,1.38.83,2.64-1.33,1.26-2.16-4.86-2.94-9.82-6.88-15.51-8.03-2.45-.49-4.9-.11-6.79,1.63s-2.84,4.37-3.42,6.8c-.72,2.99-.97,6.09-1.17,9.15-.11,1.61,2.39,1.6,2.5,0h0Z"/>
    </g>
  </g>
  <g>
    <path class="st10" d="M313.66,307.2c7.37,19.04,8.31,39.7-8.21,58.87-.37.45-1.13,1.21-2.1,2.1,3.54.66,7.37,1.7,10.46,3.15,6.24,2.91,10.38,8.76,6.82,8.97-1.42.08-5.11-3.88-9.6-5.14-2.33-.63-4.72-1.05-6.92-1.57,2.31,1.78,4.54,3.83,6.27,5.9,4.41,5.3,5.64,12.35,2.33,11.01-1.31-.55-2.96-5.69-6.5-8.73-.97-.84-1.97-1.63-2.99-2.39,1.18,2.23,2.18,4.54,2.88,6.74,2.36,7.47.63,15.42-2.28,12.59-1.15-1.13-.68-7.26-3.07-11.98-1.6-3.12-7.95-13.24-7.87-16.44.05-1.47,15.87-15.58,16.6-39,.37-11.3-7.32-26.49-13.37-40.2-3.85-8.73-3.72-7-1.6-9.31,6.61-7.11,17.33,20.82,19.14,25.44h0Z"/>
    <path class="st8" d="M310.51,49.18c-11.2-53.73,24.23-45.39,11.96-14.69,1.68-3.12,21.92-25.2,24.68-15.81,1,3.46,4.59,5.24-3.09,22.34-2.7,5.98,7.76-6.22,12.64-4.9,14.95,4.04-22.13,48.57-46.18,13.06h0Z"/>
    <path class="st7" d="M83.83,207.15c-20.25-34.9,10.33-41.8,40.07-.76,40.52,55.91-27.98-71.86,12.22-60.45,20.87,5.9,13.27,54.55,15.39,60.87,2.65,8,11.33-27.46,32.7-88.64,9.73-27.85,56.12-76.81,90.97-81.09,128.76-15.81,113.53,104.61,110.41,192.28-3.78,106.47-91.34,132.49-156.14,107.34-77.02-29.92-145.62-113.11-145.62-129.55h0Z"/>
    <path class="st10" d="M378.96,140.54c8.68,10.62,24.62,8.86,40.7-.47,0,41.99-35.14,43.85-40.94,39.02-6.95-5.8-3.85-31.29.24-38.55h0Z"/>
    <path class="st10" d="M334.79,133.8c-.68-13.24-21.56-20.95-35.9-5.01-.47.58-.94,1.15-1.42,1.68-.08.1-.16.21-.26.34l.05-.13c-1.6,1.31-6.45-.6-7.76-5.35,3.09.94,5.95,2.02,8.5,1.44-1.78-1.08-4.14-4.46-3.72-7.42.13-.92,4.72,3.04,7.63,3.33.18-.24.37-.5.55-.73-1.49-.71-3.28-3.41-2.86-6.69.13-1,3.57,3.07,6.27,3.07,5.69-9.57,28.27-5.66,28.93,15.47h0Z"/>
    <path class="st9" d="M316.86,161.08c-22.03,14.37-52.68-16.7-15.84-23.08,12.69-2.2,38.24,8.5,15.84,23.08h0Z"/>
    <path class="st8" d="M385.96,220.03c-31.44-52.06-184.99,44.21-136.31,122.44,1.13,1.76,58.8,12.54,96.93-21.14,48.23-42.59,39.21-100.81,39.39-101.31h0Z"/>
    <path class="st8" d="M233.33,198.18c7.32-35.17-38.34-150.95-62.18-131.44-4.69,3.83,4.72,32.47,2.65,55.12-2.33-4.46-31.05-35.74-34.96-22.45-1.44,4.9-6.5,7.42,4.38,31.68,5.27,11.72-22.34-13.32-20.25,8.92,2.94,31.26,99.15,74.69,110.35,58.17h0Z"/>
    <path class="st10" d="M256.12,325.27c-2.36,20.3-11.15,39.02-34.72,48.28-.52.21-1.57.52-2.83.87,2.83,2.23,5.72,4.93,7.79,7.68,4.17,5.48,5.09,12.59,1.84,11.09-1.26-.6-2.7-5.82-6.08-9.02-1.76-1.65-3.67-3.12-5.38-4.62,1.18,2.65,2.23,5.51,2.78,8.13,1.44,6.74-.76,13.56-3.07,10.83-.89-1.08.03-6.42-1.68-10.75-.47-1.18-1-2.36-1.52-3.49-.03,2.52-.21,5.01-.6,7.29-1.39,7.71-6.63,13.93-7.89,10.07-.5-1.52,2.78-6.74,2.86-12.04.05-3.49-.84-15.42.73-18.2.73-1.29,21.29-6.4,32.89-26.75,5.59-9.83,5.85-26.85,6.9-41.83.68-9.49-.03-7.92,2.94-8.97,9.15-3.2,5.64,26.51,5.06,31.42h0Z"/>
  </g>
  <g class="st19">
    <text class="st2" transform="translate(493.01 346.12)"><tspan x="0" y="0">minova</tspan></text>
    <text class="st16" transform="translate(493.22 469.92)"><tspan x="0" y="0">AI-POWERED</tspan></text>
  </g>
</svg>