<?xml version="1.0" encoding="UTF-8"?>
<svg id="Layer_2" xmlns="http://www.w3.org/2000/svg" version="1.1" viewBox="0 0 300.8 279.4">
  <!-- Generator: Adobe Illustrator 29.4.0, SVG Export Plug-In . SVG Version: 2.1.0 Build 152)  -->
  <defs>
    <style>
      .st0 {
        opacity: .6;
      }

      .st0, .st1, .st2, .st3, .st4, .st5, .st6, .st7 {
        isolation: isolate;
      }

      .st0, .st1, .st2, .st4 {
        fill: #fff;
      }

      .st1 {
        opacity: .2;
      }

      .st2 {
        opacity: .4;
      }

      .st8 {
        fill: #5f57e6;
      }

      .st9 {
        fill: #fdbe5f;
      }

      .st9, .st10, .st11, .st12 {
        fill-rule: evenodd;
      }

      .st3 {
        opacity: .1;
      }

      .st10 {
        fill: #ffe799;
      }

      .st4 {
        opacity: .2;
      }

      .st5 {
        opacity: .5;
      }

      .st5, .st13, .st7 {
        fill: #7a7ae5;
      }

      .st14 {
        fill: #182e5c;
      }

      .st15 {
        fill: #ffb924;
      }

      .st6 {
        opacity: .2;
      }

      .st16 {
        fill: #7a7ae5;
      }

      .st11 {
        fill: #ffd3c4;
      }

      .st12 {
        fill: #784125;
      }

      .st7 {
        opacity: .3;
      }

      .st17 {
        fill: #ffd481;
      }
    </style>
  </defs>
  <g id="Layer_2-2">
    <g id="Diploma">
      <g>
        <g>
          <path class="st13" d="M185.4,225.9l31.3-69.5,3.9-9.9,26.5-78.6.4-1.3c1.1-2.8,4-4.8,8.4-5.5,8.9-1.4,20.8,3.2,26.4,10.3,2.8,3.5,3.6,7,2.5,9.7l-34.1,77.1-3.9,9.9-24.3,72.8h0c-1.1,2.8-4,4.8-8.4,5.5-8.9,1.4-20.7-3.2-26.4-10.3-2.8-3.5-3.6-7-2.5-9.8v-.4h.2,0Z"/>
          <path class="st2" d="M185.4,225.9l31.3-69.5,3.9-9.9,26.5-78.6.4-1.3c1.1-2.8,4-4.8,8.4-5.5,8.9-1.4,20.8,3.2,26.4,10.3,2.8,3.5,3.6,7,2.5,9.7l-34.1,77.1-3.9,9.9-24.3,72.8h0c-1.1,2.8-4,4.8-8.4,5.5-8.9,1.4-20.7-3.2-26.4-10.3-2.8-3.5-3.6-7-2.5-9.8v-.4h.2,0Z"/>
          <path class="st7" d="M248.8,64.5c-.5.6-1,1.3-1.3,2.1l-.4,1.3-26.5,78.6-3.9,9.9-31.3,69.5h0v.4c-1.2,2.8-.5,6.2,2.3,9.8,3.9,4.9,10.7,8.6,17.5,9.9l61-156.4s-17.5-9.9-17.4-25.1h0Z"/>
          <path class="st13" d="M256,61.1c-4.5.7-7.4,2.7-8.4,5.5-1.1,2.8-.3,6.2,2.5,9.8,5.6,7.1,17.5,11.7,26.4,10.3,4.5-.7,7.4-2.7,8.4-5.5s.3-6.2-2.5-9.8c-5.6-7-17.5-11.7-26.4-10.3h0Z"/>
        </g>
        <path class="st13" d="M184.9,227.2l.5-1.2h0l31.3-69.5,3.9-9.9,26.5-78.6c-3.6,12.5,12.7,22.3,12.7,22.3l-62.6,160.6s-17.4-10.5-12.3-23.6h0Z"/>
        <path class="st0" d="M184.9,227.2l.5-1.2h0l31.3-69.5,3.9-9.9,26.5-78.6c-3.6,12.5,12.7,22.3,12.7,22.3l-62.6,160.6s-17.4-10.5-12.3-23.6h0Z"/>
        <path class="st4" d="M256,61.1c-4.5.7-7.4,2.7-8.4,5.5-1.1,2.8-.3,6.2,2.5,9.8,5.6,7.1,17.5,11.7,26.4,10.3,4.5-.7,7.4-2.7,8.4-5.5s.3-6.2-2.5-9.8c-5.6-7-17.5-11.7-26.4-10.3h0Z"/>
        <path class="st5" d="M270.6,76c9.5-2.1,2.4-11.9-9.4-15h0c-1.8-.2-3.6,0-5.3.2-4.5.7-7.4,2.7-8.4,5.5-1.1,2.8-.3,6.2,2.5,9.8,3.7,4.7,10.2,8.2,16.7,9.8l3.9-10.1Z"/>
        <path class="st13" d="M274.8,73.3l-5.2,13.3c-1-.1-2-.3-2.9-.5l3.9-10.1c1.4-.3,3.4-1.1,4.1-2.7Z"/>
        <path class="st3" d="M274.8,73.3l-5.2,13.3c-1-.1-2-.3-2.9-.5l3.9-10.1c1.4-.3,3.4-1.1,4.1-2.7Z"/>
      </g>
      <g>
        <path class="st13" d="M247.2,167.2c13.5,0,26.2,5.8,38.5,15-1.3-4.1-3-7.8-5.3-10.8,3.5-.8,6.8-1,9.9-.9-12.2-8.2-24.9-13.6-38.3-14.9l-1.2,2.6-3.5,8.9h0Z"/>
        <path class="st6" d="M253.3,167.6l.2-4.4,3.7-6.9c-1.7-.3-3.5-.6-5.2-.7l-1.2,2.6-3.5,8.9c2,0,4.1.1,6.1.4h0Z"/>
      </g>
      <g>
        <path class="st13" d="M216.7,156.4c-.8,2.2-.2,5,2,7.8,4.6,5.7,14.1,9.4,21.3,8.3,3.5-.5,5.9-2.1,6.8-4.3,0,0,0,0,0-.1l3.9-9.9c-.9,2.2-3.2,3.9-6.8,4.4-7.2,1.1-16.8-2.6-21.3-8.3-2.3-2.9-2.9-5.6-2-7.9l-3.9,9.9s0,0,0,0h0Z"/>
        <path class="st1" d="M230,160c-2.2-1.1-4.2-2.4-5.8-4l-3.9,9.9c1.6,1.5,3.6,2.9,5.8,4l3.9-9.9ZM218.7,164.2s0,0,0,0l3.9-9.9h0c-.8-1-1.4-2-1.8-2.9l-3.9,9.9c.4.9,1,1.9,1.8,2.9h0Z"/>
        <path class="st3" d="M234.5,172.5c1.9.3,3.8.3,5.5,0,3.5-.5,5.9-2.1,6.8-4.3,0,0,0,0,0-.1l3.9-9.9c-.9,2.2-3.2,3.9-6.8,4.4-1.7.3-3.6.2-5.5,0l-3.9,9.9h0Z"/>
      </g>
    </g>
    <g id="Layer_1-2">
      <g>
        <path class="st12" d="M133.7,225.4c4.2,10.7,4.7,22.4-4.6,33.3-.2.3-.6.7-1.2,1.2,2,.4,4.2,1,5.9,1.8,3.5,1.6,5.9,5,3.8,5.1-.8,0-2.9-2.2-5.4-2.9-1.3-.3-2.7-.6-3.9-.9,1.3,1,2.5,2.1,3.6,3.3,2.5,3,3.2,7,1.3,6.2-.7-.3-1.7-3.2-3.7-4.9-.6-.5-1.1-.9-1.7-1.4.7,1.2,1.2,2.5,1.6,3.8,1.4,4.2.3,8.7-1.3,7.1-.6-.6-.4-4.1-1.8-6.8-.9-1.8-4.5-7.5-4.5-9.3s9-8.8,9.4-22.1c.2-6.4-4.1-15-7.6-22.7-2.2-4.9-2.1-4-.9-5.3,3.7-4,9.8,11.8,10.8,14.4h0Z"/>
        <path class="st10" d="M106.5,96.7c-6.3-30.4,13.7-25.7,6.8-8.3,1-1.8,12.4-14.2,14-8.9.6,2,2.6,2.9-1.8,12.6-1.5,3.4,4.4-3.5,7.1-2.8,8.5,2.3-12.5,27.5-26.1,7.4h0Z"/>
        <path class="st9" d="M3.7,168.8c-11.4-19.7,5.8-23.6,22.7-.4,22.9,31.6-15.8-40.7,6.9-34.1,11.8,3.3,7.5,30.9,8.7,34.4,1.5,4.5,6.4-15.6,18.5-50.1,5.5-15.7,31.7-43.4,51.5-45.8,72.8-8.9,64.2,59.1,62.4,108.7-2.1,60.2-51.6,74.9-88.2,60.7C42.5,225.1,3.7,178.1,3.7,168.8h0Z"/>
        <path class="st12" d="M170.6,131.1c4.9,6,13.9,5,23-.3,0,23.8-19.8,24.8-23.1,22.1-4-3.3-2.2-17.7.1-21.8h0c0,0,0,0,0,0Z"/>
        <path class="st12" d="M145.6,127.3c-8.1-5.5-10.4-5.3-20.3-2.8-.3.3-.5.7-.8,1l-.2.2h0c-.9.7-3.6-.4-4.4-3.1,1.8.5,3.3,1.1,4.8.8-1-.6-2.3-2.5-2.1-4.2,0-.5,2.7,1.7,4.3,1.9.1-.1.2-.3.3-.4-.8-.4-1.9-1.9-1.6-3.8,0-.6,2,1.8,3.6,1.8,3.2-5.4,16-3.2,16.3,8.8h0,0Z"/>
        <path class="st10" d="M174.5,176.1c-17.8-29.5-104.6,25-77.1,69.2.6,1,33.2,7.1,54.8-11.9,27.2-24.1,22.2-57,22.3-57.3h0Z"/>
        <path class="st9" d="M146.7,201.4c12.2,16.2,78.4,40,79,22.6.1-3.4-15.6-10.1-24.4-19.4,2.8.7,26.8,0,22.6-6.5-1.6-2.4-.7-5.5-15.1-9.9-6.9-2.1,14-4.5,3.8-11.9-14.4-10.4-68.7,14.3-65.9,25.2h0,0Z"/>
        <path class="st12" d="M111.8,235.6c-1.4,11.5-6.3,22-19.6,27.3-.3.1-.9.3-1.6.5,1.6,1.2,3.2,2.8,4.4,4.4,2.4,3.1,2.9,7.1,1,6.3-.7-.3-1.5-3.3-3.4-5.1-1-.9-2.1-1.8-3.1-2.6.7,1.5,1.2,3.1,1.6,4.6.8,3.8-.4,7.7-1.8,6.1-.5-.6,0-3.6-1-6.1-.3-.7-.6-1.4-.8-2,0,1.4-.1,2.8-.3,4.1-.8,4.4-3.7,7.9-4.5,5.7-.3-.9,1.6-3.8,1.6-6.8,0-2-.4-8.7.4-10.3.4-.7,12-3.6,18.6-15.1,3.2-5.5,3.3-15.2,3.9-23.6.4-5.4,0-4.5,1.6-5.1,5.1-1.8,3.2,15,2.9,17.8h0Z"/>
      </g>
      <path class="st11" d="M107.3,159.7c-17.7,11.5-42.3-13.4-12.7-18.5,10.2-1.8,30.7,6.8,12.7,18.5h0Z"/>
    </g>
    <g>
      <path class="st16" d="M79.8,96.2c0-.5-.2-1-.5-1.5,0,0,0,0,0-.1,0,0,0-.1,0-.2,0,0,0-.2,0-.3,0,0,0,0,0-.2.1-.5,0-1.1,0-1.6,0,0,0,0,0,0l1-32.8,75.9-16.6,2.9,34.2.2,1.8,1.1,12.5c-34,18.1-74.6,6.5-80.5,4.7h0Z"/>
      <path class="st8" d="M175.6,42.9h0c-.2,1.6-1.4,2.9-2.9,3.3-16.1,4.3-102.3,27.2-101.8,27,.4-.2-14.2-18.8-20.9-27.3-1.6-2.1-.8-5.1,1.6-6.1L127.5,9.4c1.2-.5,2.6-.3,3.7.4l42.7,29.3c1.2.8,1.9,2.3,1.7,3.7h0Z"/>
      <g>
        <path class="st14" d="M70.5,51.1c9.8-9.3,22.1-12,29.2-12.8.5-1.4,2.8-2.2,5.4-1.9,2.9.4,5,2,4.8,3.6s-2.7,2.7-5.6,2.3c-2-.2-3.6-1.1-4.3-2.1-6.8.8-18.9,3.4-28.2,12.3-8.5,8.1-13.1,19.7-13.4,34.4h-1.9c.4-15.3,5.1-27.3,14-35.8h0Z"/>
        <path class="st15" d="M54.1,86.4c-.8-.6-1.3-1.3-1.2-2.1.2-1.4,2.4-2.3,5-2s4.5,1.8,4.3,3.2c0,.7-.6,1.2-1.4,1.5l3.8,11.9s-8.1,7.2-18.4-4.6l8-8h0Z"/>
        <rect class="st17" x="60.4" y="92" width="1" height="7.3" transform="translate(-14.4 10.9) rotate(-9.1)"/>
        <rect class="st17" x="53" y="94.7" width="10.6" height=".9" transform="translate(-38.5 150.8) rotate(-88.3)"/>
        <rect class="st17" x="51.6" y="95.2" width="8.3" height=".9" transform="translate(-48.6 132.7) rotate(-79.4)"/>
        <rect class="st17" x="50.2" y="94.6" width="6.3" height=".9" transform="translate(-53.6 116.4) rotate(-72)"/>
        <rect class="st17" x="47.1" y="91.4" width="9.4" height=".9" transform="translate(-52.1 74) rotate(-50.8)"/>
      </g>
    </g>
  </g>
</svg>