<?xml version="1.0" encoding="UTF-8"?>
<svg id="Layer_2" xmlns="http://www.w3.org/2000/svg" version="1.1" viewBox="0 0 342.4 392.7">
  <!-- Generator: Adobe Illustrator 29.4.0, SVG Export Plug-In . SVG Version: 2.1.0 Build 152)  -->
  <defs>
    <style>
      .st0 {
        fill: #fdbe5f;
      }

      .st0, .st1, .st2, .st3 {
        fill-rule: evenodd;
      }

      .st1 {
        fill: #ffe799;
      }

      .st2 {
        fill: #ffd3c4;
      }

      .st3 {
        fill: #784125;
      }
    </style>
  </defs>
  <g id="Layer_1-2">
    <g>
      <path class="st3" d="M236.4,297.1c7.4,19,8.3,39.7-8.2,58.9-.4.5-1.1,1.2-2.1,2.1,3.5.7,7.4,1.7,10.5,3.1,6.2,2.9,10.4,8.8,6.8,9-1.4,0-5.1-3.9-9.6-5.1-2.3-.6-4.7-1-6.9-1.6,2.3,1.8,4.5,3.8,6.3,5.9,4.4,5.3,5.6,12.4,2.3,11-1.3-.5-3-5.7-6.5-8.7-1-.8-2-1.6-3-2.4,1.2,2.2,2.2,4.5,2.9,6.7,2.4,7.5.6,15.4-2.3,12.6-1.1-1.1-.7-7.3-3.1-12-1.6-3.1-7.9-13.2-7.9-16.4,0-1.5,15.9-15.6,16.6-39,.4-11.3-7.3-26.5-13.4-40.2-3.9-8.7-3.7-7-1.6-9.3,6.6-7.1,17.3,20.8,19.1,25.4h0Z"/>
      <path class="st1" d="M233.2,39c-11.2-53.7,24.2-45.4,12-14.7,1.7-3.1,21.9-25.2,24.7-15.8,1,3.5,4.6,5.2-3.1,22.3-2.7,6,7.8-6.2,12.6-4.9,15,4-22.1,48.6-46.2,13.1h0Z"/>
      <path class="st0" d="M6.5,197c-20.2-34.9,10.3-41.8,40.1-.8,40.5,55.9-28-71.9,12.2-60.4,20.9,5.9,13.3,54.6,15.4,60.9,2.7,8,11.3-27.5,32.7-88.6,9.7-27.8,56.1-76.8,91-81.1,128.8-15.8,113.5,104.6,110.4,192.3-3.8,106.5-91.3,132.5-156.1,107.3C75.1,296.6,6.5,213.5,6.5,197h0Z"/>
      <path class="st3" d="M301.7,130.4c8.7,10.6,24.6,8.9,40.7-.5,0,42-35.1,43.9-40.9,39-7-5.8-3.9-31.3.2-38.6h0Z"/>
      <path class="st3" d="M257.5,123.7c-.7-13.2-21.6-20.9-35.9-5-.5.6-.9,1.2-1.4,1.7,0,0-.2.2-.3.3h0c-1.6,1.2-6.4-.7-7.8-5.5,3.1.9,5.9,2,8.5,1.4-1.8-1.1-4.1-4.5-3.7-7.4.1-.9,4.7,3,7.6,3.3.2-.2.4-.5.6-.7-1.5-.7-3.3-3.4-2.9-6.7.1-1,3.6,3.1,6.3,3.1,5.7-9.6,28.3-5.7,28.9,15.5h0Z"/>
      <path class="st2" d="M239.6,150.9c-22,14.4-52.7-16.7-15.8-23.1,12.7-2.2,38.2,8.5,15.8,23.1h0Z"/>
      <path class="st1" d="M308.7,209.9c-31.4-52.1-185,44.2-136.3,122.4,1.1,1.8,58.8,12.5,96.9-21.1,48.2-42.6,39.2-100.8,39.4-101.3h0Z"/>
      <path class="st1" d="M156,188.1c7.3-35.2-38.3-150.9-62.2-131.4-4.7,3.8,4.7,32.5,2.7,55.1-2.3-4.5-31.1-35.7-35-22.4-1.4,4.9-6.5,7.4,4.4,31.7,5.3,11.7-22.3-13.3-20.2,8.9,2.9,31.3,99.1,74.7,110.4,58.2h0Z"/>
      <path class="st3" d="M197.8,315.1c-2.4,20.3-11.1,39-34.7,48.3-.5.2-1.6.5-2.8.9,2.8,2.2,5.7,4.9,7.8,7.7,4.2,5.5,5.1,12.6,1.8,11.1-1.3-.6-2.7-5.8-6.1-9-1.8-1.6-3.7-3.1-5.4-4.6,1.2,2.6,2.2,5.5,2.8,8.1,1.4,6.7-.8,13.6-3.1,10.8-.9-1.1,0-6.4-1.7-10.8-.5-1.2-1-2.4-1.5-3.5,0,2.5-.2,5-.6,7.3-1.4,7.7-6.6,13.9-7.9,10.1-.5-1.5,2.8-6.7,2.9-12,0-3.5-.8-15.4.7-18.2.7-1.3,21.3-6.4,32.9-26.8,5.6-9.8,5.9-26.9,6.9-41.8.7-9.5,0-7.9,2.9-9,9.1-3.2,5.6,26.5,5.1,31.4h0,0Z"/>
    </g>
  </g>
</svg>