<?xml version="1.0" encoding="UTF-8"?>
<svg id="Layer_1" xmlns="http://www.w3.org/2000/svg" version="1.1" viewBox="0 0 453.54 453.54">
  <!-- Generator: Adobe Illustrator 29.4.0, SVG Export Plug-In . SVG Version: 2.1.0 Build 152)  -->
  <defs>
    <style>
      .m {
        fill: #fdbe5f;
      }

      .st1 {
        fill: #ffd45f;
      }

      .tri {
        fill: #e6ad56;
      }
    </style>
  </defs>
  <path class="m" d="M405.36,10.6c-.8-.15-1.72-.22-2.74-.22-26.51,0-124.4,49.79-175.85,118.71C175.32,60.17,77.43,10.38,50.92,10.38c-1.02,0-1.94.07-2.74.22-12.75,0-26.64,15.31-29.48,47.34v183.59c0,114.91,93.16,201.64,208.06,201.64h.02c114.9,0,208.06-86.73,208.06-201.64V57.94c-2.84-32.03-16.73-47.34-29.48-47.34ZM329.77,249.09c0,54.69-44.34,99.02-99.03,99.02h-7.94c-54.69,0-99.03-44.33-99.03-99.02v-67.26c0-7.58,6.05-10.13,12.76-7.39,19.75,17.2,35.81,67.09,90.24,68.41,54.43-1.32,70.49-51.21,90.24-68.41,6.71-2.74,12.76-.19,12.76,7.39v67.26Z"/>
  <path class="st1" d="M113.95,34.46c64.63,76.82,27.28,140.78,29.26,147.02,16.87,20.66,35.18,61.4,84.69,61.4,25.87-1.33,40.75-11.47,54.5-25.58-48.12-86.9-78.87-131.02-168.45-182.84Z"/>
  <path class="tri" d="M226.96,128.83c-16.29,26.06-39.34,71.09-48.31,96.18,12.16,10.37,27.77,18.04,49.25,18.04,25.87-1.33,40.75-11.47,54.5-25.58-19.58-35.35-37.42-66.78-55.43-88.64Z"/>
</svg>