<?xml version="1.0" encoding="UTF-8"?>
<svg id="Layer_1" xmlns="http://www.w3.org/2000/svg" version="1.1" viewBox="0 0 1499.18 453.54">
  <!-- Generator: Adobe Illustrator 29.4.0, SVG Export Plug-In . SVG Version: 2.1.0 Build 152)  -->
  <defs>
    <style>
      .st0 {
        fill: #d1923f;
      }

      .st1 {
        fill: #e6ad56;
      }

      .st2 {
        fill: #ffd45f;
      }

      .st3 {
        isolation: isolate;
      }

      .st4 {
        fill: #444;
      }

      .st5 {
        fill: #fdbe5f;
      }
    </style>
  </defs>
  <g id="Logo">
    <path class="st5" d="M358.5,56.83c-.64-.12-1.38-.18-2.19-.18-21.21,0-99.52,39.83-140.68,94.97-41.16-55.14-119.47-94.97-140.68-94.97-.82,0-1.55.06-2.19.18-10.2,0-21.31,12.25-23.58,37.87v146.87c0,91.93,74.53,161.31,166.45,161.31h.02c91.92,0,166.45-69.38,166.45-161.31V94.71c-2.27-25.62-13.38-37.87-23.58-37.87ZM298.03,247.63c0,43.75-35.47,79.22-79.22,79.22h-6.35c-43.75,0-79.22-35.46-79.22-79.22v-53.81c0-6.06,4.84-8.1,10.21-5.91,15.8,13.76,28.65,53.67,72.19,54.73,43.54-1.06,56.39-40.97,72.19-54.73,5.37-2.19,10.21-.15,10.21,5.91v53.81Z"/>
    <path class="st2" d="M125.37,75.92c51.7,61.46,21.82,112.62,23.41,117.62,13.5,16.53,28.14,49.12,67.75,49.12,20.7-1.06,32.6-9.18,43.6-20.46-38.5-69.52-63.1-104.82-134.76-146.27Z"/>
    <path class="st1" d="M215.78,151.42c-13.03,20.85-31.47,56.87-38.65,76.94,9.73,8.3,22.22,14.43,39.4,14.43,20.7-1.06,32.6-9.18,43.6-20.46-15.66-28.28-29.94-53.42-44.34-70.91h0Z"/>
  </g>
  <g class="st3">
    <g class="st3">
      <path class="st4" d="M643.29,251.05v-83.44c0-18.76-4.76-28.56-20.72-28.56-15.12,0-21.84,9.24-21.84,28.56v83.44h-45.92v-83.44c0-18.76-5.32-28.56-21.56-28.56-14.56,0-21,9.24-21,28.56v83.44h-45.92v-83.44c0-48.72,21-70,64.4-70,29.4,0,45.92,17.08,47.04,22.68,1.4-5.88,17.36-22.68,47.88-22.68,45.92,0,63.56,25.2,63.56,70v83.44h-45.92Z"/>
      <path class="st4" d="M717.2,90.33v-39.76h45.92v39.76h-45.92ZM717.2,251.05V100.97h45.92v150.08h-45.92Z"/>
      <path class="st4" d="M931.12,251.05h-45.92v-83.44c0-18.76-4.76-28.56-23.8-28.56-17.36,0-24.36,9.24-24.36,28.56v83.44h-45.92v-83.44c0-48.72,26.88-70,70.56-70,46.76,0,69.44,25.2,69.44,70v83.44Z"/>
      <path class="st4" d="M1025.2,254.41c-46.76,0-75.04-28.28-75.04-78.4s31.08-78.4,75.04-78.4c47.04,0,73.92,28.84,73.92,78.4s-29.96,78.4-73.92,78.4ZM1024.92,139.05c-17.64,0-29.12,11.2-29.12,36.96s12.04,36.96,29.12,36.96,28.84-11.76,28.84-36.96c0-26.6-9.52-36.96-28.84-36.96Z"/>
      <path class="st4" d="M1178.36,258.61l-81.76-157.64h50.96l30.8,73.08,30.8-73.08h50.96l-81.76,157.64Z"/>
      <path class="st4" d="M1360.64,251.05v-28.56h-1.96c-3.64,12.32-14.28,31.92-44.52,31.92-31.92,0-56.56-26.04-56.56-77s31.08-79.8,75.04-79.8c53.76,0,73.92,28,73.92,78.68v74.76h-45.92ZM1332.36,139.05c-17.64,0-29.12,11.76-29.12,37.24s10.36,36.68,28.84,36.68c17.36,0,28.56-13.44,28.56-36.68,0-26.88-10.64-37.24-28.28-37.24Z"/>
    </g>
  </g>
  <g class="st3">
    <g class="st3">
      <path class="st0" d="M525.41,381.77l-7.84-21.81h-30.02l-7.68,21.81h-13.54l29.38-78.85h13.96l29.38,78.85h-13.64ZM514.18,348.9l-7.36-21.38c-.54-1.43-1.28-3.69-2.23-6.77-.95-3.08-1.6-5.33-1.96-6.77-.97,4.4-2.38,9.22-4.24,14.45l-7.09,20.46h22.88Z"/>
      <path class="st0" d="M559.32,381.77v-78.53h12.84v78.53h-12.84Z"/>
      <path class="st0" d="M596.29,357.65v-10.74h27.61v10.74h-27.61Z"/>
      <path class="st0" d="M700.08,326.98c0,8.2-2.69,14.48-8.06,18.85-5.37,4.37-13.02,6.55-22.93,6.55h-8.16v29.38h-12.84v-78.53h22.61c9.81,0,17.16,2.01,22.05,6.02,4.89,4.01,7.33,9.92,7.33,17.72ZM660.92,341.59h6.82c6.59,0,11.42-1.15,14.5-3.44,3.08-2.29,4.62-5.87,4.62-10.74,0-4.51-1.38-7.88-4.14-10.1-2.76-2.22-7.05-3.33-12.89-3.33h-8.92v27.61Z"/>
      <path class="st0" d="M795.38,342.4c0,12.78-3.2,22.72-9.59,29.81-6.39,7.09-15.44,10.63-27.15,10.63s-20.96-3.52-27.31-10.55c-6.36-7.04-9.53-17.03-9.53-30s3.2-22.92,9.59-29.86c6.39-6.95,15.51-10.42,27.37-10.42s20.7,3.53,27.07,10.58c6.37,7.05,9.56,16.99,9.56,29.81ZM735.43,342.4c0,9.67,1.95,17,5.85,22,3.9,4.99,9.69,7.49,17.35,7.49s13.38-2.47,17.27-7.41,5.83-12.3,5.83-22.08-1.93-16.94-5.78-21.91c-3.85-4.98-9.59-7.47-17.21-7.47s-13.51,2.49-17.43,7.47c-3.92,4.98-5.88,12.28-5.88,21.91Z"/>
      <path class="st0" d="M894.6,381.77h-13.96l-13.32-46.84c-.57-2.04-1.29-4.99-2.15-8.84-.86-3.85-1.38-6.53-1.56-8.03-.36,2.29-.94,5.26-1.75,8.92-.81,3.65-1.48,6.37-2.01,8.16l-13,46.62h-13.96l-10.15-39.32-10.31-39.21h13.11l11.23,45.76c1.75,7.34,3.01,13.82,3.76,19.44.39-3.04.98-6.45,1.77-10.21.79-3.76,1.5-6.8,2.15-9.13l12.78-45.87h12.73l13.11,46.08c1.25,4.26,2.58,10.63,3.97,19.12.54-5.12,1.83-11.64,3.87-19.55l11.17-45.65h13l-20.46,78.53Z"/>
      <path class="st0" d="M980.5,381.77h-44.42v-78.53h44.42v10.85h-31.58v21.38h29.59v10.74h-29.59v24.65h31.58v10.9Z"/>
      <path class="st0" d="M1020.21,350.4v31.37h-12.84v-78.53h22.18c10.13,0,17.63,1.9,22.5,5.69,4.87,3.8,7.3,9.53,7.3,17.19,0,9.78-5.08,16.74-15.25,20.89l22.18,34.75h-14.61l-18.8-31.37h-12.68ZM1020.21,339.77h8.92c5.98,0,10.31-1.11,13-3.33,2.69-2.22,4.03-5.51,4.03-9.88s-1.45-7.63-4.35-9.56-7.27-2.9-13.11-2.9h-8.49v25.67Z"/>
      <path class="st0" d="M1132,381.77h-44.42v-78.53h44.42v10.85h-31.58v21.38h29.59v10.74h-29.59v24.65h31.58v10.9Z"/>
      <path class="st0" d="M1222.73,341.76c0,12.96-3.6,22.87-10.8,29.73-7.2,6.86-17.56,10.29-31.1,10.29h-21.97v-78.53h24.28c12.5,0,22.22,3.37,29.17,10.1,6.95,6.73,10.42,16.2,10.42,28.41ZM1209.2,342.18c0-18.8-8.79-28.2-26.37-28.2h-11.12v56.99h9.13c18.91,0,28.36-9.6,28.36-28.79Z"/>
    </g>
  </g>
</svg>